<svg width="240" height="240" viewBox="0 0 240 240" fill="none" xmlns="http://www.w3.org/2000/svg">
<g filter="url(#filter0_f_316_1580)">
<circle cx="120" cy="120" r="100" fill="#1A1A1A"/>
</g>
<g filter="url(#filter1_f_316_1580)">
<circle cx="120" cy="120" r="100" fill="#1A1A1A"/>
</g>
<circle cx="120" cy="120" r="100" fill="#1A1A1A"/>
<mask id="mask0_316_1580" style="mask-type:alpha" maskUnits="userSpaceOnUse" x="20" y="20" width="200" height="200">
<circle cx="120" cy="120" r="100" fill="url(#paint0_radial_316_1580)"/>
</mask>
<g mask="url(#mask0_316_1580)">
<mask id="mask1_316_1580" style="mask-type:alpha" maskUnits="userSpaceOnUse" x="20" y="20" width="200" height="200">
<circle cx="120" cy="120" r="100" fill="#C4C4C4"/>
</mask>
<g mask="url(#mask1_316_1580)">
<g opacity="0.37931">
<path opacity="0.0344828" d="M252.407 47.9702L-12.4094 191.996" stroke="white" stroke-linecap="square"/>
<path opacity="0.0689655" d="M239.127 42.7672L0.876305 197.191" stroke="white" stroke-linecap="square"/>
<path opacity="0.103448" d="M225.479 38.5016L14.5284 201.449" stroke="white" stroke-linecap="square"/>
<path opacity="0.137931" d="M211.613 35.1741L28.3983 204.769" stroke="white" stroke-linecap="square"/>
<path opacity="0.172414" d="M197.674 32.7758L42.3399 207.16" stroke="white" stroke-linecap="square"/>
<path opacity="0.206897" d="M183.805 31.2885L56.2114 208.641" stroke="white" stroke-linecap="square"/>
<path opacity="0.241379" d="M170.142 30.6851L69.8764 209.237" stroke="white" stroke-linecap="square"/>
<path opacity="0.275862" d="M156.814 30.9304L83.2057 208.985" stroke="white" stroke-linecap="square"/>
<path opacity="0.310345" d="M143.943 31.9814L96.0777 207.928" stroke="white" stroke-linecap="square"/>
<path opacity="0.344828" d="M131.641 33.788L108.38 206.115" stroke="white" stroke-linecap="square"/>
<path opacity="0.37931" d="M120.011 36.2932L120.011 203.603" stroke="white" stroke-linecap="square"/>
<path opacity="0.413793" d="M109.143 39.4353L130.878 200.455" stroke="white" stroke-linecap="square"/>
<path opacity="0.448276" d="M99.1187 43.1469L140.902 196.737" stroke="white" stroke-linecap="square"/>
<path opacity="0.482759" d="M90.0045 47.3571L150.015 192.52" stroke="white" stroke-linecap="square"/>
<path opacity="0.517241" d="M81.8555 51.9915L158.163 187.879" stroke="white" stroke-linecap="square"/>
<path opacity="0.551724" d="M74.7139 56.9738L165.302 182.89" stroke="white" stroke-linecap="square"/>
<path opacity="0.586207" d="M68.6083 62.2261L171.406 177.631" stroke="white" stroke-linecap="square"/>
<path opacity="0.62069" d="M63.5546 67.67L176.456 172.179" stroke="white" stroke-linecap="square"/>
<path opacity="0.655172" d="M59.5552 73.228L180.452 166.614" stroke="white" stroke-linecap="square"/>
<path opacity="0.689655" d="M56.6001 78.8232L183.403 161.011" stroke="white" stroke-linecap="square"/>
<path opacity="0.724138" d="M54.6667 84.3815L185.331 155.446" stroke="white" stroke-linecap="square"/>
<path opacity="0.758621" d="M53.7205 89.8311L186.271 149.988" stroke="white" stroke-linecap="square"/>
<path opacity="0.793103" d="M53.7157 95.1045L186.267 144.707" stroke="white" stroke-linecap="square"/>
<path opacity="0.827586" d="M54.5962 100.138L185.378 139.666" stroke="white" stroke-linecap="square"/>
<path opacity="0.862069" d="M56.2962 104.875L183.667 134.923" stroke="white" stroke-linecap="square"/>
<path opacity="0.896552" d="M58.7411 109.261L181.21 130.531" stroke="white" stroke-linecap="square"/>
<path opacity="0.931035" d="M61.8488 113.251L178.089 126.536" stroke="white" stroke-linecap="square"/>
<path opacity="0.965517" d="M65.5309 116.805L174.392 122.979" stroke="white" stroke-linecap="square"/>
<path d="M69.6935 119.891L170.214 119.891" stroke="white" stroke-linecap="square"/>
</g>
<g opacity="0.517241">
<path opacity="0.0344828" d="M-2.13794 191.911L241.973 47.8862" stroke="white" stroke-linecap="square"/>
<path opacity="0.0689655" d="M10.1035 197.115L229.726 42.6908" stroke="white" stroke-linecap="square"/>
<path opacity="0.103448" d="M22.6838 201.38L217.141 38.4328" stroke="white" stroke-linecap="square"/>
<path opacity="0.137931" d="M35.4655 204.708L204.355 35.1127" stroke="white" stroke-linecap="square"/>
<path opacity="0.172414" d="M48.314 207.106L191.503 32.7216" stroke="white" stroke-linecap="square"/>
<path opacity="0.206897" d="M61.0984 208.594L178.716 31.2415" stroke="white" stroke-linecap="square"/>
<path opacity="0.241379" d="M73.6932 209.197L166.119 30.6451" stroke="white" stroke-linecap="square"/>
<path opacity="0.275862" d="M85.9789 208.952L153.832 30.8974" stroke="white" stroke-linecap="square"/>
<path opacity="0.310345" d="M97.8435 207.901L141.966 31.9551" stroke="white" stroke-linecap="square"/>
<path opacity="0.344828" d="M109.183 206.095L130.626 33.7684" stroke="white" stroke-linecap="square"/>
<path opacity="0.37931" d="M119.904 203.59L119.904 36.2805" stroke="white" stroke-linecap="square"/>
<path opacity="0.413793" d="M129.922 200.448L109.887 39.429" stroke="white" stroke-linecap="square"/>
<path opacity="0.448276" d="M139.163 196.737L100.647 43.1474" stroke="white" stroke-linecap="square"/>
<path opacity="0.482759" d="M147.565 192.527L92.2461 47.3644" stroke="white" stroke-linecap="square"/>
<path opacity="0.517241" d="M155.077 187.893L84.7357 52.0056" stroke="white" stroke-linecap="square"/>
<path opacity="0.551724" d="M161.66 182.911L78.1543 56.9949" stroke="white" stroke-linecap="square"/>
<path opacity="0.586207" d="M167.288 177.659L72.5286 62.2544" stroke="white" stroke-linecap="square"/>
<path opacity="0.62069" d="M171.947 172.215L67.873 67.7058" stroke="white" stroke-linecap="square"/>
<path opacity="0.655172" d="M175.634 166.657L64.1901 73.2711" stroke="white" stroke-linecap="square"/>
<path opacity="0.689655" d="M178.359 161.062L61.4705 78.8739" stroke="white" stroke-linecap="square"/>
<path opacity="0.724138" d="M180.142 155.504L59.6937 84.4398" stroke="white" stroke-linecap="square"/>
<path opacity="0.758621" d="M181.014 150.054L58.8279 89.8969" stroke="white" stroke-linecap="square"/>
<path opacity="0.793103" d="M181.019 144.781L58.8311 95.1778" stroke="white" stroke-linecap="square"/>
<path opacity="0.827586" d="M180.208 139.746L59.6517 100.219" stroke="white" stroke-linecap="square"/>
<path opacity="0.862069" d="M178.641 135.01L61.2289 104.962" stroke="white" stroke-linecap="square"/>
<path opacity="0.896552" d="M176.388 130.623L63.4942 109.354" stroke="white" stroke-linecap="square"/>
<path opacity="0.931035" d="M173.523 126.633L66.3716 113.348" stroke="white" stroke-linecap="square"/>
<path opacity="0.965517" d="M170.129 123.078L69.7793 116.905" stroke="white" stroke-linecap="square"/>
<path d="M166.292 119.992L73.6305 119.992" stroke="white" stroke-linecap="square"/>
</g>
<g opacity="0.37931">
<path opacity="0.0344828" d="M248.53 198.627L-8.6079 41.3024" stroke="white" stroke-linecap="square"/>
<path opacity="0.0689655" d="M246.396 184.525L-6.4644 55.4058" stroke="white" stroke-linecap="square"/>
<path opacity="0.103448" d="M243.266 170.573L-3.326 69.358" stroke="white" stroke-linecap="square"/>
<path opacity="0.137931" d="M239.215 156.901L0.733615 83.0298" stroke="white" stroke-linecap="square"/>
<path opacity="0.172414" d="M234.322 143.63L5.63355 96.2991" stroke="white" stroke-linecap="square"/>
<path opacity="0.206897" d="M228.676 130.875L11.2872 109.052" stroke="white" stroke-linecap="square"/>
<path opacity="0.241379" d="M222.367 118.741L17.6031 121.185" stroke="white" stroke-linecap="square"/>
<path opacity="0.275862" d="M215.49 107.321L24.486 132.602" stroke="white" stroke-linecap="square"/>
<path opacity="0.310345" d="M208.144 96.7002L31.8378 143.221" stroke="white" stroke-linecap="square"/>
<path opacity="0.344828" d="M200.429 86.9497L39.5591 152.969" stroke="white" stroke-linecap="square"/>
<path opacity="0.37931" d="M192.444 78.1302L47.5496 161.785" stroke="white" stroke-linecap="square"/>
<path opacity="0.413793" d="M184.289 70.2899L55.7098 169.622" stroke="white" stroke-linecap="square"/>
<path opacity="0.448276" d="M176.063 63.4642L63.9418 176.444" stroke="white" stroke-linecap="square"/>
<path opacity="0.482759" d="M167.86 57.676L72.1501 182.228" stroke="white" stroke-linecap="square"/>
<path opacity="0.517241" d="M159.772 52.9362L80.2432 186.964" stroke="white" stroke-linecap="square"/>
<path opacity="0.551724" d="M151.886 49.2424L88.1338 190.652" stroke="white" stroke-linecap="square"/>
<path opacity="0.586207" d="M144.285 46.5811L95.74 193.308" stroke="white" stroke-linecap="square"/>
<path opacity="0.62069" d="M137.043 44.9264L102.986 194.957" stroke="white" stroke-linecap="square"/>
<path opacity="0.655172" d="M130.23 44.2418L109.804 195.635" stroke="white" stroke-linecap="square"/>
<path opacity="0.689655" d="M123.907 44.4802L116.131 195.389" stroke="white" stroke-linecap="square"/>
<path opacity="0.724138" d="M118.127 45.5848L121.915 194.275" stroke="white" stroke-linecap="square"/>
<path opacity="0.758621" d="M112.934 47.4902L127.111 192.361" stroke="white" stroke-linecap="square"/>
<path opacity="0.793103" d="M108.365 50.1228L131.683 189.717" stroke="white" stroke-linecap="square"/>
<path opacity="0.827586" d="M104.446 53.4023L135.604 186.426" stroke="white" stroke-linecap="square"/>
<path opacity="0.862069" d="M101.194 57.2427L138.857 182.573" stroke="white" stroke-linecap="square"/>
<path opacity="0.896552" d="M98.6176 61.5531L141.432 178.249" stroke="white" stroke-linecap="square"/>
<path opacity="0.931035" d="M96.7159 66.2396L143.331 173.549" stroke="white" stroke-linecap="square"/>
<path opacity="0.965517" d="M95.4788 71.2056L144.563 168.569" stroke="white" stroke-linecap="square"/>
<path d="M94.8875 76.3535L145.148 163.407" stroke="white" stroke-linecap="square"/>
</g>
<g opacity="0.517241">
<path opacity="0.0344828" d="M-3.39929 50.1556L243.386 189.549" stroke="white" stroke-linecap="square"/>
<path opacity="0.0689655" d="M-1.78452 63.3586L241.762 176.345" stroke="white" stroke-linecap="square"/>
<path opacity="0.103448" d="M0.811432 76.3862L239.157 163.317" stroke="white" stroke-linecap="square"/>
<path opacity="0.137931" d="M4.3205 89.1194L235.639 150.584" stroke="white" stroke-linecap="square"/>
<path opacity="0.172414" d="M8.6676 101.446L231.284 138.259" stroke="white" stroke-linecap="square"/>
<path opacity="0.206897" d="M13.7716 113.261L226.172 126.445" stroke="white" stroke-linecap="square"/>
<path opacity="0.241379" d="M19.5463 124.47L220.39 115.237" stroke="white" stroke-linecap="square"/>
<path opacity="0.275862" d="M25.9014 134.987L214.028 104.722" stroke="white" stroke-linecap="square"/>
<path opacity="0.310345" d="M32.7437 144.737L207.179 94.9752" stroke="white" stroke-linecap="square"/>
<path opacity="0.344828" d="M39.9778 153.655L199.938 86.0606" stroke="white" stroke-linecap="square"/>
<path opacity="0.37931" d="M47.5078 161.687L192.402 78.0318" stroke="white" stroke-linecap="square"/>
<path opacity="0.413793" d="M55.2374 168.792L184.667 70.9309" stroke="white" stroke-linecap="square"/>
<path opacity="0.448276" d="M63.072 174.939L176.827 64.7877" stroke="white" stroke-linecap="square"/>
<path opacity="0.482759" d="M70.9187 180.11L168.974 59.621" stroke="white" stroke-linecap="square"/>
<path opacity="0.517241" d="M78.688 184.298L161.2 55.4376" stroke="white" stroke-linecap="square"/>
<path opacity="0.551724" d="M86.2943 187.509L153.588 52.2326" stroke="white" stroke-linecap="square"/>
<path opacity="0.586207" d="M93.657 189.757L146.22 49.9903" stroke="white" stroke-linecap="square"/>
<path opacity="0.62069" d="M100.701 191.07L139.172 48.684" stroke="white" stroke-linecap="square"/>
<path opacity="0.655172" d="M107.358 191.484L132.51 48.2772" stroke="white" stroke-linecap="square"/>
<path opacity="0.689655" d="M113.566 191.046L126.298 48.7234" stroke="white" stroke-linecap="square"/>
<path opacity="0.724138" d="M119.27 189.811L120.59 49.9676" stroke="white" stroke-linecap="square"/>
<path opacity="0.758621" d="M124.426 187.841L115.431 51.9464" stroke="white" stroke-linecap="square"/>
<path opacity="0.793103" d="M128.996 185.209L110.859 54.5895" stroke="white" stroke-linecap="square"/>
<path opacity="0.827586" d="M132.95 181.989L106.904 57.8207" stroke="white" stroke-linecap="square"/>
<path opacity="0.862069" d="M136.269 178.264L103.585 61.5581" stroke="white" stroke-linecap="square"/>
<path opacity="0.896552" d="M138.941 174.119L100.914 65.7158" stroke="white" stroke-linecap="square"/>
<path opacity="0.931035" d="M140.964 169.643L98.8935 70.2049" stroke="white" stroke-linecap="square"/>
<path opacity="0.965517" d="M142.346 164.926L97.5169 74.9346" stroke="white" stroke-linecap="square"/>
<path d="M143.1 160.06L96.769 79.8133" stroke="white" stroke-linecap="square"/>
</g>
<g opacity="0.37931">
<path opacity="0.0344828" d="M116.118 270.618L123.797 -30.732" stroke="white" stroke-linecap="square"/>
<path opacity="0.0689655" d="M127.265 261.719L112.655 -21.8239" stroke="white" stroke-linecap="square"/>
<path opacity="0.103448" d="M137.783 252.032L102.141 -12.1299" stroke="white" stroke-linecap="square"/>
<path opacity="0.137931" d="M147.597 241.688L92.3308 -1.77829" stroke="white" stroke-linecap="square"/>
<path opacity="0.172414" d="M156.644 230.816L83.2892 9.09986" stroke="white" stroke-linecap="square"/>
<path opacity="0.206897" d="M164.866 219.548L75.0714 20.3727" stroke="white" stroke-linecap="square"/>
<path opacity="0.241379" d="M172.22 208.017L67.7223 31.9088" stroke="white" stroke-linecap="square"/>
<path opacity="0.275862" d="M178.672 196.352L61.2759 43.5782" stroke="white" stroke-linecap="square"/>
<path opacity="0.310345" d="M184.197 184.68L55.7557 55.2545" stroke="white" stroke-linecap="square"/>
<path opacity="0.344828" d="M188.784 173.123L51.1746 66.8151" stroke="white" stroke-linecap="square"/>
<path opacity="0.37931" d="M192.429 161.798L47.5346 78.1433" stroke="white" stroke-linecap="square"/>
<path opacity="0.413793" d="M195.142 150.816L44.8276 89.1288" stroke="white" stroke-linecap="square"/>
<path opacity="0.448276" d="M196.94 140.279L43.0355 99.6689" stroke="white" stroke-linecap="square"/>
<path opacity="0.482759" d="M197.851 130.28L42.1307 109.669" stroke="white" stroke-linecap="square"/>
<path opacity="0.517241" d="M197.912 120.906L42.0762 119.046" stroke="white" stroke-linecap="square"/>
<path opacity="0.551724" d="M197.168 112.23L42.8269 127.724" stroke="white" stroke-linecap="square"/>
<path opacity="0.586207" d="M195.672 104.316L44.3299 135.639" stroke="white" stroke-linecap="square"/>
<path opacity="0.62069" d="M193.484 97.2175L46.5254 142.739" stroke="white" stroke-linecap="square"/>
<path opacity="0.655172" d="M190.67 90.975L49.3472 148.982" stroke="white" stroke-linecap="square"/>
<path opacity="0.689655" d="M187.302 85.6182L52.724 154.338" stroke="white" stroke-linecap="square"/>
<path opacity="0.724138" d="M183.456 81.1647L56.5801 158.791" stroke="white" stroke-linecap="square"/>
<path opacity="0.758621" d="M179.209 77.6204L60.8365 162.334" stroke="white" stroke-linecap="square"/>
<path opacity="0.793103" d="M174.645 74.9796L65.4115 164.971" stroke="white" stroke-linecap="square"/>
<path opacity="0.827586" d="M169.845 73.2252L70.2223 166.722" stroke="white" stroke-linecap="square"/>
<path opacity="0.862069" d="M164.893 72.3292L75.1853 167.612" stroke="white" stroke-linecap="square"/>
<path opacity="0.896552" d="M159.872 72.2534L80.2176 167.68" stroke="white" stroke-linecap="square"/>
<path opacity="0.931035" d="M154.863 72.9498L85.2378 166.974" stroke="white" stroke-linecap="square"/>
<path opacity="0.965517" d="M149.943 74.3615L90.1668 165.551" stroke="white" stroke-linecap="square"/>
<path d="M145.19 76.4233L94.9292 163.477" stroke="white" stroke-linecap="square"/>
</g>
<g opacity="0.517241">
<path opacity="0.0344828" d="M118.734 -21.7946L121.408 261.624" stroke="white" stroke-linecap="square"/>
<path opacity="0.0689655" d="M108.107 -13.7947L132.031 253.616" stroke="white" stroke-linecap="square"/>
<path opacity="0.103448" d="M98.123 -5.03271L142.011 244.846" stroke="white" stroke-linecap="square"/>
<path opacity="0.137931" d="M88.8504 4.3728L151.279 235.433" stroke="white" stroke-linecap="square"/>
<path opacity="0.172414" d="M80.349 14.3007L159.776 225.498" stroke="white" stroke-linecap="square"/>
<path opacity="0.206897" d="M72.6685 24.6285L167.452 215.164" stroke="white" stroke-linecap="square"/>
<path opacity="0.241379" d="M65.8485 35.2341L174.266 204.553" stroke="white" stroke-linecap="square"/>
<path opacity="0.275862" d="M59.9179 45.9963L180.192 193.786" stroke="white" stroke-linecap="square"/>
<path opacity="0.310345" d="M54.8956 56.7968L185.208 182.981" stroke="white" stroke-linecap="square"/>
<path opacity="0.344828" d="M50.7899 67.5206L189.308 172.254" stroke="white" stroke-linecap="square"/>
<path opacity="0.37931" d="M47.5988 78.0577L192.493 161.713" stroke="white" stroke-linecap="square"/>
<path opacity="0.413793" d="M45.3108 88.3042L194.775 151.463" stroke="white" stroke-linecap="square"/>
<path opacity="0.448276" d="M43.9045 98.1626L196.175 141.602" stroke="white" stroke-linecap="square"/>
<path opacity="0.482759" d="M43.3495 107.544L196.724 132.218" stroke="white" stroke-linecap="square"/>
<path opacity="0.517241" d="M43.6069 116.366L196.459 123.393" stroke="white" stroke-linecap="square"/>
<path opacity="0.551724" d="M44.6297 124.559L195.429 115.199" stroke="white" stroke-linecap="square"/>
<path opacity="0.586207" d="M46.364 132.059L193.687 107.697" stroke="white" stroke-linecap="square"/>
<path opacity="0.62069" d="M48.749 138.816L191.294 100.94" stroke="white" stroke-linecap="square"/>
<path opacity="0.655172" d="M51.7188 144.788L188.316 94.9673" stroke="white" stroke-linecap="square"/>
<path opacity="0.689655" d="M55.2021 149.945L184.823 89.8107" stroke="white" stroke-linecap="square"/>
<path opacity="0.724138" d="M59.1243 154.268L180.892 85.489" stroke="white" stroke-linecap="square"/>
<path opacity="0.758621" d="M63.4075 157.749L176.598 82.0106" stroke="white" stroke-linecap="square"/>
<path opacity="0.793103" d="M67.9722 160.39L172.023 79.3731" stroke="white" stroke-linecap="square"/>
<path opacity="0.827586" d="M72.7375 162.204L167.247 77.5631" stroke="white" stroke-linecap="square"/>
<path opacity="0.862069" d="M77.6229 163.215L162.351 76.5576" stroke="white" stroke-linecap="square"/>
<path opacity="0.896552" d="M82.5486 163.457L157.415 76.3235" stroke="white" stroke-linecap="square"/>
<path opacity="0.931035" d="M87.4366 162.972L152.517 76.8182" stroke="white" stroke-linecap="square"/>
<path opacity="0.965517" d="M92.2121 161.809L147.733 77.9908" stroke="white" stroke-linecap="square"/>
<path d="M96.8033 160.03L143.134 79.7826" stroke="white" stroke-linecap="square"/>
</g>
<g style="mix-blend-mode:plus-lighter" filter="url(#filter2_f_316_1580)">
<path d="M136.379 36.8199C153.952 54.3935 107.606 45.5932 80.6654 72.5334C53.7252 99.4736 45.6396 141.199 38.8198 134.379C32 127.559 28.8393 80.7197 55.7795 53.7796C82.7197 26.8394 118.805 19.2463 136.379 36.8199Z" fill="#1A1A1A"/>
</g>
<g style="mix-blend-mode:plus-lighter" filter="url(#filter3_f_316_1580)">
<path d="M110.857 204.416C93.2835 186.843 139.63 195.643 166.571 168.703C193.511 141.762 201.596 100.037 208.416 106.857C215.236 113.677 218.397 160.516 191.456 187.456C164.516 214.397 128.431 221.99 110.857 204.416Z" fill="#1A1A1A"/>
</g>
</g>
</g>
<defs>
<filter id="filter0_f_316_1580" x="0" y="0" width="240" height="240" filterUnits="userSpaceOnUse" color-interpolation-filters="sRGB">
<feFlood flood-opacity="0" result="BackgroundImageFix"/>
<feBlend mode="normal" in="SourceGraphic" in2="BackgroundImageFix" result="shape"/>
<feGaussianBlur stdDeviation="10" result="effect1_foregroundBlur_316_1580"/>
</filter>
<filter id="filter1_f_316_1580" x="15" y="15" width="210" height="210" filterUnits="userSpaceOnUse" color-interpolation-filters="sRGB">
<feFlood flood-opacity="0" result="BackgroundImageFix"/>
<feBlend mode="normal" in="SourceGraphic" in2="BackgroundImageFix" result="shape"/>
<feGaussianBlur stdDeviation="2.5" result="effect1_foregroundBlur_316_1580"/>
</filter>
<filter id="filter2_f_316_1580" x="-5.92139" y="-12.6477" width="186.176" height="187.769" filterUnits="userSpaceOnUse" color-interpolation-filters="sRGB">
<feFlood flood-opacity="0" result="BackgroundImageFix"/>
<feBlend mode="normal" in="SourceGraphic" in2="BackgroundImageFix" result="shape"/>
<feGaussianBlur stdDeviation="20" result="effect1_foregroundBlur_316_1580"/>
</filter>
<filter id="filter3_f_316_1580" x="66.9813" y="66.1149" width="186.176" height="187.769" filterUnits="userSpaceOnUse" color-interpolation-filters="sRGB">
<feFlood flood-opacity="0" result="BackgroundImageFix"/>
<feBlend mode="normal" in="SourceGraphic" in2="BackgroundImageFix" result="shape"/>
<feGaussianBlur stdDeviation="20" result="effect1_foregroundBlur_316_1580"/>
</filter>
<radialGradient id="paint0_radial_316_1580" cx="0" cy="0" r="1" gradientUnits="userSpaceOnUse" gradientTransform="translate(120 120) rotate(90) scale(100)">
<stop offset="0.195852" stop-color="#C4C4C4" stop-opacity="0"/>
<stop offset="0.267419" stop-color="#C4C4C4"/>
<stop offset="0.775733" stop-color="#C4C4C4"/>
<stop offset="1" stop-color="#C4C4C4" stop-opacity="0"/>
</radialGradient>
</defs>
</svg>
